<svg id="Слой_1" data-name="Слой 1" xmlns="http://www.w3.org/2000/svg" viewBox="0 0 124 124"><defs><style>.cls-1{fill:#dd738c;}.cls-2{fill:#15173f;}.cls-3{fill:#2896e0;}.cls-4{fill:#b6bdcc;}</style></defs><title>earth</title><path class="cls-1" d="M62,98.61A44.74,44.74,0,0,1,17.45,57.93c-.12,1.34-.19,2.7-.19,4.07a44.75,44.75,0,0,0,89.49,0c0-1.37-.07-2.73-.19-4.07A44.74,44.74,0,0,1,62,98.61Z"/><path class="cls-2" d="M34.09,99a2,2,0,0,1-2-1.7L30.53,86.7l-2-15.29a2,2,0,0,1,1.09-2.05l8-4,8.74-5.83,4.09-5.73-3.79-6.06H33.53a2,2,0,0,1-1.4-.57l-8.76-8.54a2,2,0,0,1,2.79-2.86l8.18,8H47.76a2,2,0,0,1,1.7.94l5.08,8.14A2,2,0,0,1,54.48,55l-5.08,7.12a2,2,0,0,1-.52.5l-9.15,6.1-.21.13L32.65,72.3l1.85,13.84,1.58,10.52a2,2,0,0,1-1.68,2.27Z"/><path class="cls-3" d="M89.46,69.08a2,2,0,0,1-.57-.08L79,66H71.15a2,2,0,0,1-1.87-1.3L66.23,56.6a2,2,0,0,1-.13-.7V48.78a2,2,0,0,1,1.74-2l14.57-1.94L95,32a2,2,0,1,1,2.86,2.79l-13,13.36a2,2,0,0,1-1.17.58L70.1,50.53v5L72.54,62h6.75a2,2,0,0,1,.57.08L89.46,65l16.72-4.92a2,2,0,1,1,1.13,3.84L90,69A2,2,0,0,1,89.46,69.08Z"/><path class="cls-2" d="M77.17,106.1a2,2,0,0,1-2-1.67l-1.88-11.2L66.41,82.4a2,2,0,0,1,.7-2.81l7.12-4.07a2,2,0,0,1,1-.26h8.13a2,2,0,0,1,.4,0l19.09,3.92a2,2,0,0,1-.8,3.92L83.15,79.25h-7.4L70.92,82l6,9.42a2,2,0,0,1,.29.74l2,11.59a2,2,0,0,1-1.64,2.3Z"/><path class="cls-2" d="M62,108.75A46.75,46.75,0,1,1,108.75,62,46.8,46.8,0,0,1,62,108.75Zm0-89.49A42.75,42.75,0,1,0,104.75,62,42.79,42.79,0,0,0,62,19.25Z"/><path class="cls-4" d="M122,64a2,2,0,0,1-2-2c0-1.52-.06-3.06-.18-4.58a2,2,0,1,1,4-.31c.13,1.62.19,3.27.19,4.89A2,2,0,0,1,122,64Z"/><path class="cls-4" d="M119.85,48a2,2,0,0,1-1.93-1.47,58,58,0,0,0-2.19-6.43,2,2,0,1,1,3.7-1.51,61.82,61.82,0,0,1,2.34,6.87A2,2,0,0,1,119.85,48Z"/><path class="cls-4" d="M112,30.79a2,2,0,0,1-1.67-.89A57.93,57.93,0,0,0,62,4a2,2,0,0,1,0-4,61.93,61.93,0,0,1,51.65,27.69A2,2,0,0,1,112,30.79Z"/><path class="cls-4" d="M2.41,71.11a2,2,0,0,1-2-1.77A62.86,62.86,0,0,1,0,62a2,2,0,0,1,4,0,58.9,58.9,0,0,0,.4,6.88A2,2,0,0,1,2.65,71.1Z"/><path class="cls-4" d="M7.66,89.47a2,2,0,0,1-1.81-1.15A61.81,61.81,0,0,1,2,77.76a2,2,0,0,1,3.87-1,57.81,57.81,0,0,0,3.58,9.88,2,2,0,0,1-1.81,2.85Z"/><path class="cls-4" d="M62,124A62,62,0,0,1,10.73,96.87,2,2,0,1,1,14,94.62,58,58,0,0,0,62,120a2,2,0,0,1,0,4Z"/></svg>