<svg id="Слой_1" data-name="Слой 1" xmlns="http://www.w3.org/2000/svg" viewBox="0 0 108 122"><defs><style>.cls-1{fill:#dd738c;}.cls-2{fill:#15173f;}.cls-3{fill:#2896e0;}.cls-4{fill:#b6bdcc;}</style></defs><title>island</title><path class="cls-1" d="M86.09,110.87A53.55,53.55,0,0,1,53.82,122c-19.26,0-30.45-11.13-30.45-11.13S47.09,103.63,86.09,110.87Z"/><path class="cls-2" d="M106,120.72a2,2,0,0,1-1.15-.36c-9.43-6.61-29.46-10.87-51-10.87-21.25,0-41.16,4.18-50.71,10.65a2,2,0,1,1-2.24-3.31c10.33-7,30.61-11.34,53-11.34,22.67,0,43.1,4.44,53.32,11.6a2,2,0,0,1-1.15,3.64Z"/><path class="cls-2" d="M49.28,115h-.1a2,2,0,0,1-1.9-2.09c0-.38,1.6-38-13.23-57.39a2,2,0,1,1,3.18-2.43c6.63,8.66,11,21.4,13,37.89a145.17,145.17,0,0,1,1,22.12A2,2,0,0,1,49.28,115Z"/><path class="cls-2" d="M60.19,115a2,2,0,0,1-2-1.95c-.08-2.92-1.65-71.63,15.05-90.35a2,2,0,1,1,3,2.66c-15.66,17.55-14.06,86.89-14,87.59A2,2,0,0,1,60.24,115Z"/><path class="cls-3" d="M22,78.3a2,2,0,0,1-.37,0A2,2,0,0,1,20,75.93c.14-.72,3.47-17.66,17.15-20.75a2,2,0,0,1,.88,3.9C27,61.59,24,76.52,24,76.67A2,2,0,0,1,22,78.3Z"/><path class="cls-3" d="M9.28,61.78a2,2,0,0,1-1.42-3.41c.14-.14,14.07-13.87,30.7-3a2,2,0,0,1-2.19,3.35c-13.87-9.05-25.2,2-25.67,2.49A2,2,0,0,1,9.28,61.78Z"/><path class="cls-3" d="M37.73,58.78a2,2,0,0,1-2-1.7C34.13,46.25,40,33.77,40.2,33.25A2,2,0,0,1,43.82,35c-.06.12-5.55,11.92-4.11,21.52A2,2,0,0,1,38,58.76Z"/><path class="cls-3" d="M37.46,59a2,2,0,0,1-1.82-1.17c-5-11-15.94-14.48-16-14.51a2,2,0,1,1,1.19-3.82c.52.16,12.74,4.08,18.5,16.67A2,2,0,0,1,37.46,59Z"/><path class="cls-3" d="M37.92,59.08a2,2,0,0,1-1.79-2.89A21.57,21.57,0,0,1,48.77,45a2,2,0,0,1,1,3.86A17.55,17.55,0,0,0,39.71,58,2,2,0,0,1,37.92,59.08Z"/><path class="cls-3" d="M74.44,25.75A2,2,0,0,1,72.9,25c-8.42-10.11-29.18-3.76-29.39-3.69a2,2,0,0,1-1.2-3.82c1-.3,23.53-7.21,33.66,4.95a2,2,0,0,1-1.54,3.28Z"/><path class="cls-3" d="M74.74,25.63a2,2,0,0,1-1.94-1.5C69.42,11,56.63,3.83,56.5,3.75A2,2,0,1,1,58.43.25C59,.57,72.87,8.32,76.68,23.13a2,2,0,0,1-1.44,2.44A2,2,0,0,1,74.74,25.63Z"/><path class="cls-3" d="M92,48a2,2,0,0,1-2-1.69h0c0-.17-2.84-16.95-15.81-20.39a2,2,0,0,1,1-3.87C81.72,23.8,87,28.46,90.58,35.56A38.21,38.21,0,0,1,94,45.72,2,2,0,0,1,92.32,48Z"/><path class="cls-3" d="M74.74,26a2,2,0,0,1-1.59-3.21C79.09,15,93,20.09,93.62,20.31a2,2,0,0,1-1.4,3.75C89,22.85,79.77,20.71,76.33,25.23A2,2,0,0,1,74.74,26Z"/><path class="cls-3" d="M74.74,43.44a2,2,0,0,1-.5-.06,2,2,0,0,1-1.44-2.44c.78-3,2.34-11.83.16-16a2,2,0,1,1,3.54-1.85c3.28,6.28.49,17.58.16,18.85A2,2,0,0,1,74.74,43.44Z"/><path class="cls-4" d="M82.92,85.64a9.34,9.34,0,1,1,9.27-9.34A9.32,9.32,0,0,1,82.92,85.64Zm0-14.68a5.34,5.34,0,1,0,5.27,5.34A5.31,5.31,0,0,0,82.92,71Z"/></svg>